<svg width="25" height="25" viewBox="0 0 25 25" fill="none" xmlns="http://www.w3.org/2000/svg">
<path d="M7.27803 12.9122C7.61281 13.0448 8.5753 13.6039 8.81443 15.8521C8.8503 16.2383 9.4541 16.1807 9.41225 15.8002C9.19106 13.6154 8.18672 12.6124 7.48727 12.3588C7.82803 11.546 8.3003 10.8254 8.67693 10.3297C8.69487 10.3066 8.7128 10.2893 8.72476 10.2605C9.03562 9.857 9.2628 9.61489 9.2628 9.61489L9.26877 9.60913C9.27475 9.60336 9.28073 9.5976 9.28073 9.59183C9.7829 8.98656 10.1894 8.59457 10.5182 8.34094C10.6856 11.8573 10.309 18.9015 10.303 19.3165C10.2851 21.2303 8.64704 20.6481 6.46499 21.288C5.0362 21.703 3.3623 23.1903 1.93948 24.3489C1.19819 23.8128 0.899274 22.4582 0.797645 21.6973C0.193845 17.2586 0.905253 10.8312 4.49218 7.43591C5.72967 6.26572 9.21497 4.69777 10.2492 6.46171C10.3568 6.64617 10.4285 7.08428 10.4764 7.69531C10.022 7.96624 9.46008 8.43317 8.80845 9.23443C8.77856 9.26326 8.59921 9.45348 8.36009 9.76477C8.2465 9.73594 8.11498 9.71865 7.98944 9.71865C7.31988 9.69559 6.08836 10.0069 4.7612 11.7766C4.52805 12.0879 5.01826 12.428 5.25141 12.1224C6.47097 10.4853 7.49922 10.2951 7.95955 10.3009C7.57096 10.86 7.1226 11.6036 6.81173 12.428C6.78782 12.4626 6.77586 12.5029 6.76988 12.549C6.60847 13.0044 6.49488 13.4829 6.45304 13.9671C6.40521 13.9613 6.36336 13.9613 6.32152 13.9556C5.65196 13.9383 4.41446 14.2438 3.0873 16.0192C2.86013 16.3305 3.35034 16.6706 3.58349 16.3594C4.95848 14.5205 6.08239 14.5089 6.44108 14.5551C6.44108 14.5781 6.44108 14.6069 6.44108 14.63C6.48891 15.2756 6.39325 15.8809 6.23184 16.4228C6.21391 16.4573 6.20195 16.4977 6.19597 16.538C5.72967 18.008 4.78511 19.0053 4.77914 19.011C4.51012 19.2992 4.96446 19.6855 5.2275 19.403C5.23348 19.3972 6.18402 18.4 6.7101 16.8954C7.04488 17.0338 8.00737 17.593 8.24052 19.8353C8.28237 20.2216 8.88617 20.1639 8.84432 19.7777C8.61117 17.5641 7.5889 16.5669 6.88347 16.3305C7.02097 15.7944 7.0927 15.2122 7.04488 14.5954C7.04488 14.5724 7.04488 14.5493 7.04488 14.5205C7.09868 14.434 7.11064 14.3245 7.0389 14.215C7.05684 13.7769 7.14651 13.333 7.27803 12.9122ZM18.5589 14.5551C18.9176 14.5089 20.0415 14.5205 21.4165 16.3594C21.6497 16.6706 22.1399 16.3305 21.9127 16.0192C20.6872 14.3879 19.4078 13.8749 18.547 13.9613C18.5051 13.4713 18.3856 12.9871 18.2241 12.5317C18.2182 12.4971 18.2062 12.4683 18.1883 12.4395C17.8834 11.6094 17.435 10.8658 17.0405 10.3009C17.5008 10.2893 18.529 10.4853 19.7486 12.1224C19.9817 12.428 20.4719 12.0879 20.2388 11.7766C18.8997 9.98382 17.4888 9.53995 16.6399 9.76477C16.3769 9.43043 16.1915 9.23443 16.1915 9.23443C15.5041 8.39282 14.9242 7.91436 14.4519 7.65496C14.5834 4.17897 19.0372 6.0409 20.5078 7.43591C24.0947 10.8312 24.8062 17.2586 24.2024 21.6973C24.0947 22.4582 23.8018 23.8128 23.0605 24.3489C21.6377 23.1903 19.9638 21.703 18.529 21.288C16.353 20.6481 14.7149 21.2303 14.697 19.3165C14.6551 15.6503 14.4698 11.9841 14.4519 8.31788C14.7867 8.57152 15.2111 8.97503 15.7312 9.60913C15.7372 9.62065 16.8671 10.8139 17.5127 12.3588C17.453 12.3818 17.3872 12.4164 17.3155 12.451C16.7236 12.7565 15.8149 13.6212 15.5818 15.8002C15.5459 16.1807 16.1497 16.2383 16.1856 15.8521C16.4187 13.6097 17.3872 13.0505 17.722 12.9122C17.8535 13.333 17.9432 13.7711 17.9551 14.2092C17.8894 14.313 17.9013 14.4282 17.9551 14.5205C17.9551 14.5435 17.9551 14.5724 17.9491 14.5954C17.9073 15.2122 17.979 15.7944 18.1165 16.3305C18.0448 16.3594 17.9671 16.3939 17.8834 16.4343C17.2975 16.7398 16.3829 17.6045 16.1557 19.7777C16.1198 20.1639 16.7176 20.2216 16.7595 19.8353C16.9926 17.5987 17.9491 17.0338 18.2899 16.8954C18.816 18.4 19.7665 19.3972 19.7665 19.403C20.0355 19.6855 20.4899 19.2992 20.2209 19.011C20.2149 19.0053 19.2643 18.0022 18.798 16.5208C18.7921 16.4919 18.7861 16.4689 18.7741 16.4401C18.6067 15.8924 18.5111 15.2814 18.5589 14.63C18.5589 14.6069 18.5589 14.5781 18.5589 14.5551ZM12.1981 7.79331C12.2041 7.77602 12.2041 7.75872 12.1981 7.73566V0.599217H12.7959V7.73566C12.7959 7.75296 12.7959 7.77602 12.7959 7.79331V15.1027H12.1981V7.79331ZM11.5943 7.37826C11.4688 7.36674 11.3133 7.37826 11.14 7.41862C10.8291 3.72357 6.09434 5.09552 4.06773 7.02087C0.331344 10.5603 -0.433867 17.1433 0.199823 21.7722C0.337322 22.7868 0.725906 24.4066 1.81992 24.9657C1.94546 25.0292 2.08894 25.0003 2.17861 24.9139C2.47154 24.6775 2.7047 24.4873 2.93785 24.2971C4.23512 23.2364 5.53239 22.17 6.64434 21.8472C8.95791 21.1727 10.8829 21.8644 10.9068 19.3223C10.9487 15.5408 11.1519 11.7593 11.1579 7.97201C11.3671 7.90283 11.5106 7.91436 11.5943 7.93742V15.1776C11.5943 15.829 12.4372 15.6907 12.8736 15.6907C13.1666 15.6907 13.4057 15.4601 13.4057 15.1776V7.93742C13.4894 7.91436 13.6269 7.90283 13.8361 7.97201C13.8242 8.4274 13.8421 8.8828 13.8421 9.29784C13.8899 12.6355 14.0573 15.9789 14.0932 19.3223C14.1171 21.8644 16.0421 21.1727 18.3557 21.8472C19.4676 22.17 20.7649 23.2364 22.0622 24.2971C22.2953 24.4873 22.5285 24.6775 22.8214 24.9139C22.9111 25.0003 23.0545 25.0292 23.1801 24.9657C24.2741 24.4066 24.6627 22.7868 24.8002 21.7722C25.4339 17.1433 24.6687 10.5603 20.9323 7.02087C19.4437 5.60856 15.528 3.94839 14.2247 6.17925C14.0155 6.53088 13.9138 6.96322 13.866 7.41862C13.6867 7.3725 13.5372 7.36674 13.4057 7.37826V0.524278C13.4057 0.241818 13.1666 0.011238 12.8736 0.011238C12.4073 0.011238 11.5943 -0.121345 11.5943 0.524278V7.37826Z" fill="black"/>
</svg>
