<svg width="46" height="45" viewBox="0 0 46 45" fill="none" xmlns="http://www.w3.org/2000/svg">
<rect width="45.0038" height="44.9998" rx="10" fill="#F0B9FA"/>
<path d="M27.3919 22.7567C27.5006 22.5889 27.5648 22.3963 27.5784 22.1969C27.5921 21.9974 27.5548 21.7978 27.47 21.6168L27.0352 20.8204C26.8251 20.4347 26.6149 20.0484 26.4048 19.6614C26.2486 17.6106 25.6393 15.6201 24.6208 13.8333C24.0509 12.2244 22.4153 10.9025 20.2318 10.3013C20.2201 10.2974 20.204 10.2974 20.1927 10.2935C19.5397 10.1122 18.8664 10.0137 18.1888 10.0002H18.0556C16.1254 9.98369 14.2663 10.7274 12.8799 12.0704C9.50142 15.5118 11.0987 21.1641 11.5561 22.1367C11.8764 22.8203 12.1963 23.5078 12.5248 24.207C12.7135 24.6086 13.0091 24.9505 13.3791 25.1953C13.4422 26.8148 13.083 28.4229 12.3369 29.8617C11.8741 30.1616 11.4627 30.5342 11.1186 30.9652C10.3468 32.0211 9.95408 33.3066 10.0041 34.6136C10.0044 34.6646 10.0147 34.7151 10.0345 34.7621C10.0543 34.8091 10.0831 34.8518 10.1194 34.8877C10.1557 34.9236 10.1987 34.9519 10.2459 34.9712C10.2932 34.9904 10.3437 35.0002 10.3948 34.9999H12.3205V33.0468C12.3205 32.9432 12.3617 32.8438 12.4349 32.7706C12.5082 32.6973 12.6076 32.6562 12.7112 32.6562C12.8148 32.6562 12.9141 32.6973 12.9874 32.7706C13.0606 32.8438 13.1018 32.9432 13.1018 33.0468V34.9999H19.3517V33.0468C19.3517 32.9432 19.3929 32.8438 19.4661 32.7706C19.5394 32.6973 19.6387 32.6562 19.7423 32.6562C19.8459 32.6562 19.9453 32.6973 20.0185 32.7706C20.0918 32.8438 20.1329 32.9432 20.1329 33.0468V34.9999H23.6017C23.6591 35.0001 23.7158 34.9877 23.7678 34.9633C23.8198 34.939 23.8658 34.9035 23.9024 34.8593C23.9393 34.8139 23.9658 34.761 23.98 34.7043C23.9942 34.6476 23.9957 34.5885 23.9845 34.5311C23.7297 33.1416 23.0627 31.8609 22.0704 30.8554C21.7336 30.5276 21.3633 30.2359 20.9658 29.9851C20.6239 29.2002 20.5392 28.3274 20.7236 27.4914C20.7679 27.3056 20.8295 27.1243 20.9075 26.95C20.93 26.9029 20.9427 26.8518 20.9451 26.7997C20.9474 26.7476 20.9393 26.6955 20.9212 26.6466C20.9032 26.5977 20.8755 26.5529 20.8398 26.5148C20.8041 26.4768 20.7612 26.4463 20.7135 26.4251C20.6658 26.4039 20.6144 26.3925 20.5623 26.3915C20.5101 26.3905 20.4583 26.4 20.4099 26.4193C20.3615 26.4387 20.3174 26.4676 20.2803 26.5042C20.2432 26.5409 20.2138 26.5846 20.1939 26.6328C20.097 26.8499 20.0202 27.0755 19.9646 27.3066C19.7968 28.0136 19.8023 28.7506 19.9806 29.455C18.6798 28.8857 17.2605 28.6394 15.8439 28.7371C15.0179 28.7894 14.2056 28.9741 13.4381 29.2839C13.9256 28.1005 14.1769 26.8331 14.1779 25.5531C14.3588 25.5976 14.5444 25.6205 14.7307 25.6215C15.0933 25.6223 15.4508 25.5366 15.7736 25.3715C15.988 25.2613 16.1843 25.1191 16.3556 24.9496C16.3605 24.9452 16.3644 24.9399 16.3674 24.934C16.3752 24.9262 16.3869 24.9223 16.3908 24.9145C16.9813 24.2999 17.3343 23.4956 17.3869 22.6449C17.1524 22.4267 16.9655 22.1624 16.8378 21.8686C16.7101 21.5748 16.6444 21.2579 16.6447 20.9375V19.7657C16.6458 19.3516 16.8108 18.9549 17.1036 18.6621C17.3964 18.3693 17.7931 18.2043 18.2072 18.2032H19.379C19.6898 18.2032 19.9879 18.3267 20.2077 18.5464C20.4274 18.7662 20.5509 19.0643 20.5509 19.3751V19.7227C20.6251 19.7071 20.7033 19.6915 20.7814 19.6758C21.5392 19.5196 23.4021 18.9766 24.3165 17.3516C24.554 16.9257 24.7139 16.4609 24.7888 15.979C25.1494 16.9511 25.4025 17.9597 25.5438 18.9868L22.8407 19.3751C22.7899 19.3823 22.7411 19.3996 22.697 19.4257C22.6528 19.4519 22.6143 19.4865 22.5835 19.5275C22.5528 19.5686 22.5304 19.6153 22.5177 19.665C22.505 19.7147 22.5022 19.7665 22.5095 19.8172C22.5168 19.868 22.534 19.9169 22.5601 19.961C22.5863 20.0051 22.6209 20.0437 22.662 20.0744C22.703 20.1052 22.7497 20.1276 22.7995 20.1403C22.8492 20.153 22.9009 20.1558 22.9517 20.1485L24.5255 19.9235L23.7931 20.6571C23.7567 20.6933 23.7278 20.7363 23.7081 20.7836C23.6883 20.831 23.6781 20.8818 23.6779 20.9331C23.6778 20.9844 23.6878 21.0352 23.7073 21.0826C23.7268 21.1301 23.7555 21.1732 23.7917 21.2096C23.8279 21.246 23.8709 21.2749 23.9182 21.2946C23.9656 21.3144 24.0164 21.3246 24.0677 21.3247C24.119 21.3249 24.1698 21.3149 24.2173 21.2954C24.2647 21.2758 24.3079 21.2472 24.3442 21.211L25.6587 19.8961C25.6631 19.9178 25.6693 19.9391 25.677 19.9598C25.9002 20.3728 26.1244 20.7851 26.3497 21.1965L26.7684 21.9621C26.7943 22.0215 26.8051 22.0864 26.7997 22.1509C26.7943 22.2155 26.7729 22.2777 26.7375 22.3319C26.7021 22.3862 26.6537 22.4308 26.5968 22.4617C26.5399 22.4926 26.4762 22.5088 26.4114 22.509H26.0196C25.916 22.509 25.8166 22.5502 25.7434 22.6234C25.6701 22.6967 25.629 22.796 25.629 22.8996V23.2902H24.8438C24.6814 23.2908 24.5209 23.3251 24.3724 23.3908C24.2239 23.4566 24.0906 23.5524 23.9809 23.6722C23.8713 23.7921 23.7877 23.9333 23.7354 24.0871C23.6831 24.2409 23.6632 24.4038 23.677 24.5656C23.71 24.8623 23.8523 25.1361 24.0762 25.3337C24.3001 25.5312 24.5895 25.6382 24.888 25.634H25.302C25.3885 25.6336 25.4716 25.6675 25.5331 25.7282C25.5946 25.789 25.6295 25.8717 25.6302 25.9582C25.6304 26.0182 25.6185 26.0776 25.5951 26.1329C25.5718 26.1881 25.5374 26.2381 25.4942 26.2797C25.4519 26.323 25.4012 26.3573 25.3453 26.3806C25.2894 26.4039 25.2294 26.4156 25.1688 26.4152H22.9337C22.5681 26.3897 22.2207 26.2461 21.9439 26.0058L20.9064 24.9648C20.7975 24.8568 20.7111 24.7282 20.6522 24.5865C20.5933 24.4448 20.5631 24.2929 20.5634 24.1395V22.8973C20.5634 22.7937 20.5223 22.6943 20.449 22.6211C20.3757 22.5478 20.2764 22.5067 20.1728 22.5067C20.0692 22.5067 19.9698 22.5478 19.8966 22.6211C19.8233 22.6943 19.7822 22.7937 19.7822 22.8973V24.1406C19.782 24.3966 19.8325 24.6501 19.931 24.8864C20.0294 25.1226 20.1737 25.3371 20.3556 25.5172L21.3943 26.5558C21.8161 26.9435 22.3613 27.1696 22.9337 27.1941H25.1677C25.33 27.1946 25.4909 27.1629 25.6409 27.1009C25.7909 27.0389 25.9272 26.9477 26.0419 26.8328C26.1593 26.719 26.2524 26.5827 26.3158 26.432C26.3791 26.2813 26.4112 26.1193 26.4102 25.9558C26.4093 25.6623 26.292 25.381 26.084 25.1738C25.8761 24.9666 25.5944 24.8503 25.3009 24.8504H24.8868C24.7838 24.8534 24.6833 24.8186 24.6041 24.7526C24.525 24.6867 24.4727 24.594 24.4571 24.4922C24.4531 24.4383 24.4602 24.3842 24.478 24.3332C24.4958 24.2822 24.5239 24.2355 24.5605 24.1958C24.5971 24.1561 24.6415 24.1244 24.6909 24.1026C24.7404 24.0808 24.7937 24.0694 24.8477 24.0691H26.0196C26.1232 24.0691 26.2226 24.028 26.2958 23.9547C26.3691 23.8815 26.4102 23.7821 26.4102 23.6785V23.2879C26.6052 23.2883 26.7971 23.2399 26.9686 23.1471C27.1401 23.0543 27.2856 22.9201 27.3919 22.7567ZM32.8012 28.3808L27.7231 26.4277C27.6263 26.3906 27.5188 26.3934 27.4241 26.4356C27.3294 26.4777 27.2554 26.5558 27.2182 26.6525C27.1811 26.7493 27.1839 26.8568 27.2261 26.9515C27.2682 27.0462 27.3463 27.1203 27.443 27.1574L32.5211 29.1105C32.5659 29.1274 32.6134 29.1361 32.6613 29.1363C32.7526 29.1363 32.8411 29.1044 32.9113 29.046C32.9815 28.9877 33.0291 28.9065 33.0457 28.8168C33.0623 28.727 33.047 28.6342 33.0023 28.5546C32.9576 28.4749 32.8865 28.4134 32.8012 28.3808ZM34.1101 29.2503C34.0731 29.2136 34.0293 29.1843 33.9812 29.164C33.8861 29.1254 33.7795 29.1254 33.6844 29.164C33.6369 29.1853 33.5935 29.2144 33.5558 29.2503C33.5204 29.286 33.4924 29.3284 33.4734 29.3749C33.4538 29.4235 33.4433 29.4753 33.4426 29.5277C33.4413 29.5789 33.4518 29.6297 33.4734 29.6761C33.4924 29.7227 33.5204 29.7651 33.5558 29.8007C33.6103 29.8556 33.6797 29.8931 33.7554 29.9085C33.8311 29.9238 33.9097 29.9164 33.9812 29.8872C34.0527 29.8579 34.1139 29.8081 34.1571 29.744C34.2003 29.68 34.2235 29.6045 34.2238 29.5273C34.2228 29.4749 34.212 29.4231 34.1922 29.3746C34.1732 29.3282 34.1453 29.286 34.1101 29.2503ZM34.6133 24.8457H27.5821C27.4785 24.8457 27.3791 24.8869 27.3059 24.9601C27.2326 25.0334 27.1915 25.1327 27.1915 25.2363C27.1915 25.3399 27.2326 25.4393 27.3059 25.5125C27.3791 25.5858 27.4785 25.6269 27.5821 25.6269H34.6133C34.7169 25.6269 34.8162 25.5858 34.8895 25.5125C34.9627 25.4393 35.0039 25.3399 35.0039 25.2363C35.0039 25.1327 34.9627 25.0334 34.8895 24.9601C34.8162 24.8869 34.7169 24.8457 34.6133 24.8457Z" fill="#525252"/>
<path d="M14.7668 16.1751C14.3939 16.1751 14.0362 16.3233 13.7725 16.587C13.5088 16.8507 13.3607 17.2084 13.3607 17.5813V19.6907C13.3607 20.4366 13.657 21.152 14.1844 21.6794C14.7118 22.2068 15.4271 22.5031 16.173 22.5031H16.876C17.0625 22.5031 17.2413 22.4291 17.3732 22.2972C17.505 22.1653 17.5791 21.9865 17.5791 21.8V16.8782C17.5791 16.6918 17.505 16.5129 17.3732 16.3811C17.2413 16.2492 17.0625 16.1751 16.876 16.1751H14.7668ZM16.173 21.0969C15.8 21.0969 15.4424 20.9488 15.1787 20.685C14.915 20.4213 14.7668 20.0636 14.7668 19.6907V17.5813H16.173" fill="#525252"/>
<path d="M31.6434 25.3048C31.7403 25.3051 31.8362 25.285 31.9247 25.2457L43.1756 20.3239C43.2631 20.2889 43.3425 20.2367 43.4094 20.1704C43.4762 20.104 43.5291 20.025 43.5648 19.9379C43.6005 19.8508 43.6184 19.7574 43.6173 19.6632C43.6162 19.5691 43.5963 19.4761 43.5586 19.3898C43.5209 19.3035 43.4663 19.2257 43.3979 19.1609C43.3296 19.0961 43.249 19.0457 43.1608 19.0127C43.0726 18.9797 42.9787 18.9647 42.8846 18.9687C42.7905 18.9726 42.6982 18.9955 42.6131 19.0358L31.3622 23.9576C31.2143 24.0224 31.0932 24.136 31.0193 24.2794C30.9453 24.4229 30.9229 24.5874 30.9559 24.7454C30.9889 24.9033 31.0752 25.0452 31.2004 25.147C31.3256 25.2489 31.482 25.3046 31.6434 25.3048Z" fill="#525252"/>
</svg>
