<svg width="31" height="48" viewBox="0 0 31 48" fill="none" xmlns="http://www.w3.org/2000/svg">
<path d="M10.4734 16.6592H22.9666V19.0151H10.4734V16.6592ZM10.4697 22.8223H22.963V25.1782H10.4697V22.8223ZM10.4697 28.9845H22.963V31.3404H10.4697V28.9845Z" fill="white"/>
<path d="M8.80033 19.0255C9.22401 19.0255 9.56746 18.4937 9.56746 17.8377C9.56746 17.1817 9.22401 16.6499 8.80033 16.6499C8.37666 16.6499 8.0332 17.1817 8.0332 17.8377C8.0332 18.4937 8.37666 19.0255 8.80033 19.0255Z" fill="white"/>
<path d="M8.80033 25.1876C9.22401 25.1876 9.56746 24.6558 9.56746 23.9998C9.56746 23.3438 9.22401 22.812 8.80033 22.812C8.37666 22.812 8.0332 23.3438 8.0332 23.9998C8.0332 24.6558 8.37666 25.1876 8.80033 25.1876Z" fill="white"/>
<path d="M8.80033 31.3502C9.22401 31.3502 9.56746 30.8184 9.56746 30.1624C9.56746 29.5064 9.22401 28.9746 8.80033 28.9746C8.37666 28.9746 8.0332 29.5064 8.0332 30.1624C8.0332 30.8184 8.37666 31.3502 8.80033 31.3502Z" fill="white"/>
</svg>
