<svg width="45" height="42" viewBox="0 0 45 42" fill="none" xmlns="http://www.w3.org/2000/svg">
<mask id="mask0_172_12626" style="mask-type:luminance" maskUnits="userSpaceOnUse" x="-2" y="-4" width="49" height="49">
<path d="M46.5 -3.43555H-1.5V44.5645H46.5V-3.43555Z" fill="white"/>
</mask>
<g mask="url(#mask0_172_12626)">
<path d="M4.66212 23.8178L18.6639 21.0173C19.9141 20.7676 19.9141 20.361 18.6639 20.1113L4.66212 17.3108C3.82812 17.1443 3.01587 16.3313 2.84937 15.4981L0.0488688 1.4963C-0.201631 0.245301 0.535619 -0.335949 1.69437 0.198801L44.4211 19.9186C45.1929 20.2748 45.1929 20.8538 44.4211 21.2101L1.69437 40.9298C0.535619 41.4646 -0.201631 40.8833 0.0488688 39.6323L2.84937 25.6306C3.01587 24.7973 3.82812 23.9843 4.66212 23.8178Z" fill="#EE90FF" fill-opacity="0.6"/>
</g>
</svg>
