<svg width="25" height="28" viewBox="0 0 25 28" fill="none" xmlns="http://www.w3.org/2000/svg">
<path d="M2.48193 16.5228L2.00583 16.004L3.81526 14.0324L4.29137 14.5512L2.48193 16.5228ZM14.3594 2.52223L14.8355 3.04048L13.0913 4.94244L12.6152 4.42389L14.3594 2.52223ZM0 9.53796H2.69304V10.2717H0V9.53796ZM14.8119 9.53796H17.5049V10.2717H14.8119V9.53796ZM3.7686 4.97271L1.98555 3.02928L2.46193 2.51042L4.24498 4.45386L3.7686 4.97271ZM8.29413 7.44105L6.85886 9.00519C6.79631 9.0733 6.74668 9.15419 6.71282 9.24321C6.67897 9.33224 6.66154 9.42767 6.66154 9.52404C6.66154 9.62041 6.67897 9.71584 6.71282 9.80486C6.74668 9.89389 6.79631 9.97478 6.85886 10.0429L22.4152 26.9959C22.678 27.2826 23.1041 27.2826 23.3674 26.9959L24.8027 25.4317C24.8652 25.3636 24.9149 25.2827 24.9487 25.1937C24.9826 25.1047 25 25.0093 25 24.9129C25 24.8165 24.9826 24.7211 24.9487 24.6321C24.9149 24.543 24.8652 24.4622 24.8027 24.394L9.24635 7.44105C9.18388 7.37281 9.10968 7.31867 9.02798 7.28172C8.94628 7.24478 8.8587 7.22576 8.77024 7.22576C8.68179 7.22576 8.59421 7.24478 8.51251 7.28172C8.43081 7.31867 8.3566 7.37281 8.29413 7.44105ZM11.0877 13.8259L7.16303 9.54977L8.7833 7.78373L12.708 12.0605L11.0877 13.8259ZM8.07941 0H8.75274V2.93483H8.07941V0ZM8.07941 16.1417H8.75274V19.0765H8.07941V16.1417Z" fill="black"/>
</svg>
