<svg width="24" height="24" viewBox="0 0 24 24" fill="none" xmlns="http://www.w3.org/2000/svg">
<path d="M12.0169 0C10.4432 0 8.88501 0.309952 7.43115 0.91216C5.97729 1.51437 4.65628 2.39704 3.54355 3.50977C1.29628 5.75704 0.0337761 8.80499 0.0337761 11.9831C0.0233002 14.7502 0.981392 17.4337 2.74196 19.5684L0.345337 21.965C0.179062 22.1336 0.0664254 22.3475 0.0216395 22.58C-0.0231463 22.8125 0.00192556 23.053 0.0936916 23.2712C0.193221 23.4868 0.354569 23.668 0.557255 23.7917C0.75994 23.9155 0.994823 23.9762 1.23209 23.9662H12.0169C15.195 23.9662 18.243 22.7037 20.4902 20.4565C22.7375 18.2092 24 15.1612 24 11.9831C24 8.80499 22.7375 5.75704 20.4902 3.50977C18.243 1.2625 15.195 0 12.0169 0ZM12.0169 21.5696H4.12002L5.23445 20.4552C5.45764 20.2307 5.58291 19.9269 5.58291 19.6104C5.58291 19.2938 5.45764 18.9901 5.23445 18.7656C3.66536 17.1982 2.68825 15.1353 2.46957 12.9283C2.2509 10.7214 2.8042 8.50682 4.03521 6.66204C5.26622 4.81726 7.09877 3.45636 9.22065 2.81121C11.3425 2.16605 13.6225 2.27656 15.672 3.12389C17.7215 3.97123 19.4139 5.50298 20.4607 7.45816C21.5075 9.41335 21.8441 11.671 21.413 13.8465C20.9819 16.022 19.8099 17.9807 18.0966 19.389C16.3833 20.7972 14.2347 21.5679 12.0169 21.5696ZM15.6118 10.7848H13.2152V8.38818C13.2152 8.07037 13.089 7.76557 12.8642 7.54085C12.6395 7.31612 12.3347 7.18987 12.0169 7.18987C11.6991 7.18987 11.3943 7.31612 11.1696 7.54085C10.9448 7.76557 10.8186 8.07037 10.8186 8.38818V10.7848H8.42196C8.10415 10.7848 7.79935 10.9111 7.57462 11.1358C7.3499 11.3605 7.22365 11.6653 7.22365 11.9831C7.22365 12.3009 7.3499 12.6057 7.57462 12.8304C7.79935 13.0552 8.10415 13.1814 8.42196 13.1814H10.8186V15.578C10.8186 15.8959 10.9448 16.2007 11.1696 16.4254C11.3943 16.6501 11.6991 16.7764 12.0169 16.7764C12.3347 16.7764 12.6395 16.6501 12.8642 16.4254C13.089 16.2007 13.2152 15.8959 13.2152 15.578V13.1814H15.6118C15.9296 13.1814 16.2344 13.0552 16.4592 12.8304C16.6839 12.6057 16.8101 12.3009 16.8101 11.9831C16.8101 11.6653 16.6839 11.3605 16.4592 11.1358C16.2344 10.9111 15.9296 10.7848 15.6118 10.7848Z" fill="white" fill-opacity="0.4"/>
</svg>
