<svg width="48" height="48" viewBox="0 0 48 48" fill="none" xmlns="http://www.w3.org/2000/svg">
<path d="M24 20C12.785 20 4 16.047 4 11C4 5.953 12.785 2 24 2C35.215 2 44 5.953 44 11C44 16.047 35.215 20 24 20ZM24 4C15.486 4 6 6.875 6 11C6 15.125 15.486 18 24 18C32.514 18 42 15.125 42 11C42 6.875 32.514 4 24 4Z" fill="black"/>
<path d="M24 28C12.785 28 4 24.047 4 19V11C4 10.7348 4.10536 10.4804 4.29289 10.2929C4.48043 10.1054 4.73478 10 5 10C5.26522 10 5.51957 10.1054 5.70711 10.2929C5.89464 10.4804 6 10.7348 6 11V19C6 23.125 15.486 26 24 26C32.514 26 42 23.125 42 19V11C42 10.7348 42.1054 10.4804 42.2929 10.2929C42.4804 10.1054 42.7348 10 43 10C43.2652 10 43.5196 10.1054 43.7071 10.2929C43.8946 10.4804 44 10.7348 44 11V19C44 24.047 35.215 28 24 28Z" fill="black"/>
<path d="M24 37C12.785 37 4 33.047 4 28V19C4 18.7348 4.10536 18.4804 4.29289 18.2929C4.48043 18.1054 4.73478 18 5 18C5.26522 18 5.51957 18.1054 5.70711 18.2929C5.89464 18.4804 6 18.7348 6 19V28C6 32.125 15.486 35 24 35C32.514 35 42 32.125 42 28V19C42 18.7348 42.1054 18.4804 42.2929 18.2929C42.4804 18.1054 42.7348 18 43 18C43.2652 18 43.5196 18.1054 43.7071 18.2929C43.8946 18.4804 44 18.7348 44 19V28C44 33.047 35.215 37 24 37Z" fill="black"/>
<path d="M24 46C12.785 46 4 42.047 4 37V28C4 27.7348 4.10536 27.4804 4.29289 27.2929C4.48043 27.1054 4.73478 27 5 27C5.26522 27 5.51957 27.1054 5.70711 27.2929C5.89464 27.4804 6 27.7348 6 28V37C6 41.125 15.486 44 24 44C32.514 44 42 41.125 42 37V28C42 27.7348 42.1054 27.4804 42.2929 27.2929C42.4804 27.1054 42.7348 27 43 27C43.2652 27 43.5196 27.1054 43.7071 27.2929C43.8946 27.4804 44 27.7348 44 28V37C44 42.047 35.215 46 24 46Z" fill="black"/>
</svg>
