<svg width="48" height="48" viewBox="0 0 48 48" fill="none" xmlns="http://www.w3.org/2000/svg">
<g clip-path="url(#clip0_74_10242)">
<path d="M14.3278 24.7807C14.9479 25.0354 16.7306 26.1094 17.1735 30.4278C17.2399 31.1696 18.3582 31.0589 18.2807 30.3281C17.871 26.1316 16.0108 24.2049 14.7153 23.7177C15.3465 22.1565 16.2212 20.7724 16.9188 19.8202C16.952 19.7759 16.9852 19.7427 17.0074 19.6873C17.5832 18.9122 18.0039 18.4472 18.0039 18.4472L18.015 18.4361C18.0261 18.425 18.0371 18.4139 18.0371 18.4029C18.9672 17.2402 19.7202 16.4873 20.3292 16.0001C20.6392 22.7544 19.9416 36.2852 19.9306 37.0825C19.8973 40.7586 16.8634 39.6402 12.8219 40.8693C10.1755 41.6665 7.0752 44.5233 4.43991 46.7489C3.0669 45.7191 2.51326 43.1171 2.32503 41.6555C1.20669 33.1295 2.52434 20.7835 9.16794 14.2617C11.46 12.0139 17.9153 9.00218 19.8309 12.3904C20.0302 12.7447 20.1631 13.5863 20.2517 14.76C19.4101 15.2804 18.3693 16.1773 17.1624 17.7164C17.107 17.7717 16.7749 18.1371 16.3319 18.7351C16.1216 18.6797 15.878 18.6465 15.6454 18.6465C14.4053 18.6022 12.1243 19.2001 9.6662 22.5994C9.23437 23.1973 10.1423 23.8506 10.5742 23.2638C12.833 20.1191 14.7375 19.7537 15.5901 19.7648C14.8704 20.8389 14.0399 22.2672 13.4641 23.8506C13.4198 23.9171 13.3977 23.9946 13.3866 24.0831C13.0877 24.9579 12.8773 25.8769 12.7998 26.807C12.7112 26.7959 12.6337 26.7959 12.5562 26.7849C11.316 26.7517 9.02399 27.3385 6.56586 30.7489C6.1451 31.3468 7.05306 32.0001 7.48489 31.4022C10.0316 27.87 12.1133 27.8479 12.7776 27.9364C12.7776 27.9807 12.7776 28.0361 12.7776 28.0804C12.8662 29.3205 12.689 30.4831 12.3901 31.524C12.3569 31.5904 12.3347 31.6679 12.3236 31.7454C11.46 34.569 9.7105 36.4845 9.69942 36.4956C9.20115 37.0492 10.0427 37.7911 10.5299 37.2485C10.5409 37.2375 12.3015 35.3219 13.2759 32.4319C13.896 32.6977 15.6787 33.7717 16.1105 38.079C16.188 38.8209 17.3063 38.7101 17.2288 37.9683C16.797 33.7164 14.9036 31.8008 13.597 31.3468C13.8517 30.3171 13.9845 29.1987 13.896 28.0139C13.896 27.9697 13.896 27.9254 13.896 27.87C13.9956 27.7039 14.0178 27.4935 13.8849 27.2831C13.9181 26.4416 14.0842 25.589 14.3278 24.7807ZM35.2219 27.9364C35.8863 27.8479 37.9679 27.87 40.5146 31.4022C40.9465 32.0001 41.8544 31.3468 41.4337 30.7489C39.1638 27.6153 36.7942 26.6299 35.1998 26.7959C35.1223 25.8548 34.9008 24.9247 34.6018 24.0499C34.5908 23.9835 34.5686 23.9281 34.5354 23.8728C33.9707 22.2783 33.1403 20.8499 32.4095 19.7648C33.2621 19.7427 35.1665 20.1191 37.4254 23.2638C37.8572 23.8506 38.7652 23.1973 38.3333 22.5994C35.8531 19.1558 33.2399 18.3032 31.6676 18.7351C31.1804 18.0928 30.8371 17.7164 30.8371 17.7164C29.5638 16.0998 28.4897 15.1807 27.615 14.6825C27.8586 8.00564 36.1077 11.5821 38.8316 14.2617C45.4752 20.7835 46.7928 33.1295 45.6745 41.6555C45.4752 43.1171 44.9326 45.7191 43.5596 46.7489C40.9243 44.5233 37.824 41.6665 35.1665 40.8693C31.1361 39.6402 28.1022 40.7586 28.069 37.0825C27.9915 30.0402 27.6482 22.998 27.615 15.9558C28.2351 16.443 29.0212 17.2181 29.9845 18.4361C29.9956 18.4582 32.0884 20.7503 33.2842 23.7177C33.1735 23.762 33.0517 23.8285 32.9188 23.8949C31.8226 24.4818 30.1396 26.1427 29.7077 30.3281C29.6413 31.0589 30.7596 31.1696 30.8261 30.4278C31.2579 26.1205 33.0517 25.0465 33.6717 24.7807C33.9153 25.589 34.0814 26.4305 34.1036 27.2721C33.9818 27.4714 34.0039 27.6928 34.1036 27.87C34.1036 27.9143 34.1036 27.9697 34.0925 28.0139C34.015 29.1987 34.1479 30.3171 34.4025 31.3468C34.2697 31.4022 34.1257 31.4686 33.9707 31.5461C32.8856 32.133 31.1915 33.7939 30.7707 37.9683C30.7043 38.7101 31.8115 38.8209 31.889 38.079C32.3209 33.7828 34.0925 32.6977 34.7236 32.4319C35.698 35.3219 37.4586 37.2375 37.4586 37.2485C37.9569 37.7911 38.7984 37.0492 38.3001 36.4956C38.289 36.4845 36.5285 34.5579 35.6648 31.7122C35.6537 31.6568 35.6427 31.6126 35.6205 31.5572C35.3105 30.5053 35.1333 29.3316 35.2219 28.0804C35.2219 28.0361 35.2219 27.9807 35.2219 27.9364ZM23.4406 14.9482C23.4517 14.915 23.4517 14.8818 23.4406 14.8375V1.12951H24.5479V14.8375C24.5479 14.8707 24.5479 14.915 24.5479 14.9482V28.9883H23.4406V14.9482ZM22.3223 14.151C22.0897 14.1288 21.8018 14.151 21.4807 14.2285C20.905 7.1309 12.1354 9.76619 8.38178 13.4645C1.46136 20.2631 0.0440603 32.9081 1.21776 41.7994C1.47243 43.7482 2.19216 46.8596 4.21845 47.9337C4.45098 48.0555 4.71672 48.0001 4.88281 47.834C5.42537 47.38 5.85721 47.0146 6.28904 46.6492C8.69181 44.6119 11.0946 42.5634 13.1541 41.9434C17.4392 40.6479 21.0046 41.9766 21.0489 37.0935C21.1264 29.8299 21.5029 22.5662 21.514 15.2915C21.9015 15.1586 22.1672 15.1807 22.3223 15.225V29.1323C22.3223 30.3835 23.8835 30.1177 24.6918 30.1177C25.2344 30.1177 25.6773 29.6748 25.6773 29.1323V15.225C25.8323 15.1807 26.087 15.1586 26.4745 15.2915C26.4524 16.1662 26.4856 17.0409 26.4856 17.8382C26.5742 24.2492 26.8842 30.6714 26.9506 37.0935C26.9949 41.9766 30.5603 40.6479 34.8454 41.9434C36.905 42.5634 39.3077 44.6119 41.7105 46.6492C42.1423 47.0146 42.5742 47.38 43.1167 47.834C43.2828 48.0001 43.5486 48.0555 43.7811 47.9337C45.8074 46.8596 46.5271 43.7482 46.7818 41.7994C47.9555 32.9081 46.5382 20.2631 39.6178 13.4645C36.8607 10.7517 29.6081 7.56273 27.1942 11.8479C26.8067 12.5233 26.6185 13.3537 26.5299 14.2285C26.1977 14.1399 25.9209 14.1288 25.6773 14.151V0.985569C25.6773 0.443009 25.2344 0.000102084 24.6918 0.000102084C23.8281 0.000102084 22.3223 -0.254569 22.3223 0.985569V14.151Z" fill="black"/>
</g>
<defs>
<clipPath id="clip0_74_10242">
<rect width="48" height="48" fill="white"/>
</clipPath>
</defs>
</svg>
