<svg width="63" height="27" viewBox="0 0 63 27" fill="none" xmlns="http://www.w3.org/2000/svg">
<g clip-path="url(#clip0_0_115)">
<path d="M0.564453 21.0005H13.2485V17.4445H5.10045V0.980469H0.564453V21.0005Z" fill="white"/>
<path d="M21.5869 18.2275C19.2909 18.2275 18.0029 16.5475 18.0029 13.7475V13.5235C18.0029 10.7235 19.3469 9.09953 21.5869 9.09953C23.8549 9.09953 25.1709 10.7795 25.1709 13.5795V13.7755C25.1709 16.5475 23.8549 18.2275 21.5869 18.2275ZM21.5589 21.3075C25.9549 21.3075 29.2869 18.3675 29.2869 13.7475V13.5235C29.2869 8.95953 25.9829 6.01953 21.5869 6.01953C17.1909 6.01953 13.8589 9.01553 13.8589 13.6075V13.8315C13.8589 18.3955 17.1909 21.3075 21.5589 21.3075Z" fill="white"/>
<path d="M37.665 26.4035C42.481 26.4035 45.3649 24.1915 45.3929 19.8515V6.35553H41.361V8.53953C40.521 7.05553 39.0929 6.01953 36.7129 6.01953C33.0729 6.01953 30.2729 8.95953 30.2729 13.1595V13.3555C30.2729 17.6955 33.1009 20.3555 36.6569 20.3555C38.8129 20.3555 40.549 19.0675 41.361 17.6395V19.8515C41.361 22.1475 40.129 23.4355 37.665 23.4355C35.593 23.4355 34.669 22.5955 34.417 21.3075H30.3849C30.7769 24.3315 32.933 26.4035 37.665 26.4035ZM37.861 17.3035C35.845 17.3035 34.417 15.7915 34.417 13.3555V13.1315C34.417 10.7235 35.677 9.09953 37.945 9.09953C40.1569 9.09953 41.4729 10.6115 41.4729 13.1035V13.2995C41.4729 15.7915 39.989 17.3035 37.861 17.3035Z" fill="white"/>
<path d="M54.9619 18.2275C52.6659 18.2275 51.3779 16.5475 51.3779 13.7475V13.5235C51.3779 10.7235 52.7219 9.09953 54.9619 9.09953C57.2299 9.09953 58.5459 10.7795 58.5459 13.5795V13.7755C58.5459 16.5475 57.2299 18.2275 54.9619 18.2275ZM54.9339 21.3075C59.3299 21.3075 62.6619 18.3675 62.6619 13.7475V13.5235C62.6619 8.95953 59.3579 6.01953 54.9619 6.01953C50.5659 6.01953 47.2339 9.01553 47.2339 13.6075V13.8315C47.2339 18.3955 50.5659 21.3075 54.9339 21.3075Z" fill="white"/>
</g>
<defs>
<clipPath id="clip0_0_115">
<rect width="63" height="27" fill="white"/>
</clipPath>
</defs>
</svg>
