<svg width="48" height="48" viewBox="0 0 48 48" fill="none" xmlns="http://www.w3.org/2000/svg">
<g clip-path="url(#clip0_74_10288)">
<path d="M40.5077 44.0549C40.5077 46.2374 33.1127 47.9999 24.0002 47.9999C14.8877 47.9999 7.49268 46.2374 7.49268 44.0549C7.49268 42.1049 13.4177 40.4999 21.1877 40.1699H26.8127C34.5902 40.4999 40.5077 42.1049 40.5077 44.0549Z" fill="#E3E2E1"/>
<path d="M23.9998 0C15.5248 0 8.65479 6.8625 8.65479 15.3375C8.65479 23.8125 23.9998 44.055 23.9998 44.055C23.9998 44.055 39.3373 23.8125 39.3373 15.3375C39.3373 6.8625 32.4748 0 23.9998 0ZM23.9998 25.4925C18.3898 25.4925 13.8448 20.9475 13.8448 15.3375C13.8448 9.7275 18.3898 5.1825 23.9998 5.1825C29.6098 5.1825 34.1548 9.7275 34.1548 15.3375C34.1548 20.9475 29.6098 25.4925 23.9998 25.4925Z" fill="#E82327"/>
</g>
<defs>
<clipPath id="clip0_74_10288">
<rect width="48" height="48" fill="white"/>
</clipPath>
</defs>
</svg>
