<svg width="48" height="48" viewBox="0 0 48 48" fill="none" xmlns="http://www.w3.org/2000/svg">
<path d="M38 16C36.5864 15.9973 35.2174 16.495 34.1355 17.405C33.0537 18.315 32.3288 19.5784 32.0893 20.9716C31.8497 22.3649 32.111 23.7979 32.8267 25.0169C33.5425 26.236 34.6667 27.1624 36 27.632V31C36 33.3869 35.0518 35.6761 33.364 37.364C31.6762 39.0518 29.387 40 27 40C24.6131 40 22.3239 39.0518 20.6361 37.364C18.9482 35.6761 18 33.3869 18 31V28.96L24.248 23.964C25.4214 23.0295 26.3684 21.8417 27.0181 20.4897C27.6679 19.1376 28.0035 17.6561 28 16.156V6C28 5.46957 27.7893 4.96086 27.4142 4.58579C27.0392 4.21071 26.5305 4 26 4H22C21.4696 4 20.9609 4.21071 20.5858 4.58579C20.2107 4.96086 20 5.46957 20 6C20 6.53043 20.2107 7.03914 20.5858 7.41421C20.9609 7.78929 21.4696 8 22 8H24V16.156C24.0021 17.0558 23.8008 17.9445 23.4112 18.7555C23.0216 19.5666 22.4537 20.2792 21.75 20.84L16 25.44L10.252 20.84C9.54787 20.2795 8.97955 19.567 8.58957 18.7559C8.1996 17.9448 7.99806 17.056 8.00003 16.156V8H10C10.5305 8 11.0392 7.78929 11.4142 7.41421C11.7893 7.03914 12 6.53043 12 6C12 5.46957 11.7893 4.96086 11.4142 4.58579C11.0392 4.21071 10.5305 4 10 4H6.00003C5.4696 4 4.96089 4.21071 4.58582 4.58579C4.21074 4.96086 4.00003 5.46957 4.00003 6V16.156C3.99638 17.6561 4.33198 19.1376 4.98171 20.4897C5.63144 21.8419 6.5785 23.0296 7.75203 23.964L14 28.96V31C14 34.4478 15.3697 37.7544 17.8076 40.1924C20.2456 42.6304 23.5522 44 27 44C30.4478 44 33.7544 42.6304 36.1924 40.1924C38.6304 37.7544 40 34.4478 40 31V27.632C41.3334 27.1624 42.4575 26.236 43.1733 25.0169C43.8891 23.7979 44.1504 22.3649 43.9108 20.9716C43.6713 19.5784 42.9464 18.315 41.8645 17.405C40.7827 16.495 39.4137 15.9973 38 16ZM38 24C37.6045 24 37.2178 23.8827 36.8889 23.6629C36.56 23.4432 36.3036 23.1308 36.1523 22.7654C36.0009 22.3999 35.9613 21.9978 36.0385 21.6098C36.1156 21.2219 36.3061 20.8655 36.5858 20.5858C36.8655 20.3061 37.2219 20.1156 37.6098 20.0384C37.9978 19.9613 38.3999 20.0009 38.7654 20.1522C39.1308 20.3036 39.4432 20.56 39.663 20.8889C39.8827 21.2178 40 21.6044 40 22C39.9995 22.5303 39.7886 23.0387 39.4137 23.4136C39.0387 23.7886 38.5303 23.9995 38 24Z" fill="black"/>
</svg>
