<svg width="21" height="21" viewBox="0 0 21 21" fill="none" xmlns="http://www.w3.org/2000/svg">
<path d="M17.8499 6.29995C17.1077 6.29854 16.389 6.55984 15.821 7.03757C15.2531 7.51529 14.8725 8.17861 14.7467 8.91004C14.621 9.64147 14.7581 10.3938 15.1339 11.0338C15.5097 11.6738 16.0999 12.1601 16.7999 12.4067V14.1749C16.7999 15.428 16.3021 16.6298 15.416 17.5159C14.5299 18.402 13.3281 18.8999 12.0749 18.8999C10.8218 18.8999 9.61997 18.402 8.73387 17.5159C7.84777 16.6298 7.34996 15.428 7.34996 14.1749V13.1039L10.6301 10.481C11.2462 9.99039 11.7433 9.36684 12.0844 8.657C12.4255 7.94716 12.6018 7.16939 12.5999 6.38185V1.04999C12.5999 0.771517 12.4893 0.504447 12.2924 0.307535C12.0955 0.110624 11.8284 0 11.5499 0H9.44994C9.17147 0 8.9044 0.110624 8.70748 0.307535C8.51057 0.504447 8.39995 0.771517 8.39995 1.04999C8.39995 1.32847 8.51057 1.59554 8.70748 1.79245C8.9044 1.98936 9.17147 2.09998 9.44994 2.09998H10.4999V6.38185C10.501 6.85425 10.3953 7.32078 10.1908 7.7466C9.98625 8.17242 9.68812 8.54651 9.31869 8.84093L6.29997 11.2559L3.28229 8.84093C2.91261 8.54667 2.61424 8.17263 2.40951 7.7468C2.20477 7.32096 2.09896 6.85435 2.1 6.38185V2.09998H3.14999C3.42847 2.09998 3.69554 1.98936 3.89245 1.79245C4.08936 1.59554 4.19998 1.32847 4.19998 1.04999C4.19998 0.771517 4.08936 0.504447 3.89245 0.307535C3.69554 0.110624 3.42847 0 3.14999 0H1.05001C0.771532 0 0.504463 0.110624 0.307551 0.307535C0.110639 0.504447 1.54429e-05 0.771517 1.54429e-05 1.04999V6.38185C-0.00189942 7.16941 0.174286 7.9472 0.515394 8.65705C0.856501 9.3669 1.3537 9.99044 1.9698 10.481L5.24997 13.1039V14.1749C5.24997 15.985 5.96903 17.7209 7.24895 19.0009C8.52888 20.2808 10.2648 20.9998 12.0749 20.9998C13.885 20.9998 15.621 20.2808 16.9009 19.0009C18.1808 17.7209 18.8999 15.985 18.8999 14.1749V12.4067C19.5999 12.1601 20.19 11.6738 20.5658 11.0338C20.9416 10.3938 21.0788 9.64147 20.953 8.91004C20.8272 8.17861 20.4467 7.51529 19.8787 7.03757C19.3108 6.55984 18.592 6.29854 17.8499 6.29995ZM17.8499 10.4999C17.6422 10.4999 17.4392 10.4383 17.2665 10.323C17.0939 10.2076 16.9593 10.0436 16.8798 9.85174C16.8003 9.65988 16.7795 9.44876 16.8201 9.24508C16.8606 9.04141 16.9606 8.85431 17.1074 8.70747C17.2543 8.56063 17.4414 8.46062 17.645 8.42011C17.8487 8.3796 18.0598 8.40039 18.2517 8.47986C18.4436 8.55933 18.6075 8.69391 18.7229 8.86658C18.8383 9.03925 18.8999 9.24226 18.8999 9.44993C18.8996 9.72832 18.7889 9.99523 18.592 10.1921C18.3952 10.3889 18.1283 10.4996 17.8499 10.4999Z" fill="black"/>
</svg>
