<svg width="45" height="45" viewBox="0 0 45 45" fill="none" xmlns="http://www.w3.org/2000/svg">
<rect width="45" height="45" rx="10" fill="#CDFBE4"/>
<path d="M22.502 8.98828C18.0879 8.98828 14.5098 12.5625 14.5098 16.9766C14.5098 21.3906 22.502 31.9336 22.502 31.9336C22.502 31.9336 30.4902 21.3906 30.4902 16.9766C30.4902 12.5625 26.916 8.98828 22.502 8.98828ZM22.502 22.2656C19.5801 22.2656 17.2129 19.8984 17.2129 16.9766C17.2129 14.0547 19.5801 11.6875 22.502 11.6875C25.4238 11.6875 27.791 14.0547 27.791 16.9766C27.791 19.8984 25.4238 22.2656 22.502 22.2656Z" fill="#E82327"/>
<path d="M31.0977 33.957C31.0977 35.0938 27.2461 36.0117 22.5 36.0117C17.7539 36.0117 13.9023 35.0938 13.9023 33.957C13.9023 32.9414 16.9883 32.1055 21.0352 31.9336H23.9648C28.0156 32.1055 31.0977 32.9414 31.0977 33.957Z" fill="#E3E2E1"/>
</svg>
