<svg width="24" height="24" viewBox="0 0 24 24" fill="none" xmlns="http://www.w3.org/2000/svg">
<path d="M6.22311 0.974733L6.3695 0.138078C5.78239 0.0345534 5.186 -0.00611404 4.59034 0.0167589C3.26767 0.07787 2.20309 0.504427 1.42672 1.28491C0.865933 1.8477 0.485256 2.57084 0.295419 3.4341C0.294996 3.4359 0.294626 3.43771 0.294256 3.43941C0.160912 4.08536 0.122548 4.74745 0.180386 5.40457L1.02294 5.32982C0.972472 4.75639 1.00578 4.17863 1.1218 3.61488C1.27653 2.91356 1.58024 2.33181 2.02472 1.88567C2.64741 1.25985 3.5237 0.916701 4.62566 0.865784C5.16048 0.845432 5.69594 0.881951 6.22311 0.974733ZM2.80204 10.6526C2.54708 10.1856 2.31447 9.71649 2.11068 9.25813L1.33812 9.60473C1.55132 10.0841 1.79423 10.5741 2.06014 11.0612L2.80204 10.6526ZM0.416955 6.91127C0.50471 7.29116 0.615619 7.68501 0.746723 8.08189L1.54958 7.81445C1.42667 7.44232 1.32284 7.07385 1.24095 6.71934L0.416955 6.91127ZM3.2221 12.9649C3.48643 13.3562 3.76978 13.7522 4.06455 14.1415C4.09846 14.1863 4.13252 14.2311 4.16674 14.2758L4.83711 13.7577C4.80399 13.7145 4.77098 13.6711 4.7381 13.6276C4.45226 13.2502 4.17773 12.8668 3.92224 12.4882L3.2221 12.9649ZM6.59153 15.8286C6.38044 15.6019 6.17168 15.3706 5.97111 15.1413C5.92202 15.0851 5.87322 15.0288 5.82473 14.9725L5.18507 15.5282C5.23487 15.586 5.28504 15.6439 5.33557 15.7017C5.54201 15.9378 5.7568 16.1757 5.97391 16.4089C6.07118 16.5134 6.1696 16.6175 6.26916 16.7213L6.87832 16.1323C6.78165 16.0313 6.68605 15.93 6.59153 15.8286ZM22.6055 14.208L21.831 14.5493C22.3127 15.6516 22.6353 16.7025 22.7898 17.6726C23.0795 19.4908 22.762 20.9245 21.8715 21.8188C21.4309 22.2612 20.8575 22.5649 20.1674 22.7214C19.6088 22.8476 18.9749 22.8778 18.2835 22.8112C18.1131 22.7947 17.9371 22.7722 17.7607 22.7441L17.6285 23.583C17.8221 23.6138 18.0153 23.6386 18.2028 23.6567C18.4676 23.6822 18.7255 23.6949 18.9765 23.6948C19.4394 23.6977 19.9012 23.6491 20.3535 23.55C21.2022 23.3578 21.9142 22.9775 22.4697 22.4196C23.56 21.3246 23.9595 19.6368 23.6252 17.5385C23.4592 16.4971 23.1162 15.3765 22.6055 14.208ZM21.6545 12.3178L20.9197 12.7389C21.1153 13.083 21.2995 13.4298 21.4674 13.7695L22.225 13.3917C22.0501 13.0373 21.8581 12.6759 21.6545 12.3178ZM20.7547 10.8599C20.4649 10.4281 20.1592 9.99858 19.8461 9.58349L19.1719 10.0965C19.4756 10.4991 19.7722 10.9158 20.0534 11.3347L20.7547 10.8599ZM17.7598 7.12237L17.148 7.70895C17.5061 8.0856 17.8579 8.47754 18.1938 8.87378L18.8379 8.32314C18.4916 7.91459 18.1289 7.51065 17.7598 7.12237ZM16.6794 20.9605C16.6643 20.9067 16.6387 20.8564 16.6042 20.8125C16.5697 20.7686 16.5269 20.732 16.4783 20.7048C16.4297 20.6776 16.3762 20.6603 16.3209 20.6539C16.2656 20.6474 16.2096 20.652 16.1561 20.6674C16.1025 20.6828 16.0526 20.7086 16.009 20.7434C15.9655 20.7783 15.9292 20.8214 15.9022 20.8703C15.8753 20.9192 15.8583 20.973 15.8521 21.0286C15.8459 21.0841 15.8507 21.1404 15.8662 21.1941L16.2014 22.3707C15.2436 22.0639 14.3158 21.6697 13.4295 21.1929C12.1883 20.5269 11.008 19.7522 9.90227 18.878C9.08181 18.2326 8.29688 17.5429 7.55097 16.8119L6.9601 17.4202C7.72776 18.1724 8.53554 18.8823 9.37986 19.5465C10.525 20.4517 11.7474 21.2539 13.0328 21.9435C13.7686 22.3368 14.5306 22.6786 15.3132 22.9667L14.6212 23.1656C14.5672 23.1804 14.5167 23.2058 14.4726 23.2404C14.4285 23.275 14.3917 23.318 14.3642 23.3669C14.3368 23.4159 14.3193 23.4699 14.3128 23.5257C14.3062 23.5815 14.3108 23.638 14.3262 23.6921C14.3416 23.7461 14.3675 23.7965 14.4024 23.8404C14.4373 23.8843 14.4806 23.9208 14.5296 23.9478C14.5787 23.9748 14.6326 23.9917 14.6883 23.9976C14.7439 24.0036 14.8002 23.9983 14.8538 23.9822L16.9301 23.3855C17.038 23.3545 17.1291 23.2818 17.1835 23.1833C17.238 23.0848 17.2512 22.9686 17.2204 22.8603L16.6794 20.9605ZM10.1961 0.336013C10.1845 0.281441 10.1623 0.229702 10.1308 0.183751C10.0992 0.1378 10.059 0.0985389 10.0124 0.0682103C9.96572 0.0378816 9.91359 0.0170802 9.85894 0.00699479C9.8043 -0.00309067 9.74821 -0.00226252 9.69388 0.00943192L7.58189 0.462801C7.47221 0.486349 7.37634 0.55269 7.31535 0.647231C7.25437 0.741772 7.23328 0.85677 7.25672 0.966928L7.66822 2.89896C7.6925 3.00827 7.75878 3.10353 7.85264 3.164C7.94649 3.22447 8.06033 3.24527 8.16938 3.22186C8.27843 3.19845 8.37386 3.13273 8.43491 3.03901C8.49595 2.94529 8.51767 2.83114 8.49534 2.72142L8.23942 1.51884C8.97392 1.7822 9.68861 2.09829 10.3779 2.46465C11.6031 3.11419 12.7693 3.87029 13.8631 4.72428C14.3791 5.12413 14.8986 5.55785 15.4071 6.01313C15.6892 6.26618 15.9733 6.53117 16.2512 6.80084C16.3735 6.91939 16.4966 7.04098 16.6173 7.16219L17.2154 6.56154C17.0913 6.43688 16.9647 6.312 16.8389 6.18988C16.553 5.91252 16.2608 5.63988 15.9702 5.37925C15.4469 4.91048 14.9116 4.4638 14.3811 4.05269C13.8719 3.65507 13.3449 3.27789 12.8043 2.92084C13.108 2.7495 13.4123 2.58725 13.7102 2.43853L13.3342 1.6778C12.97 1.85944 12.5977 2.05939 12.2278 2.27245L12.4762 2.70782C11.9212 2.35387 11.3536 2.02254 10.7734 1.71385C10.2646 1.44368 9.74253 1.19951 9.20917 0.982272L9.87092 0.840193C9.92524 0.828533 9.97673 0.806243 10.0225 0.774595C10.0682 0.742947 10.1073 0.702561 10.1375 0.655743C10.1677 0.608925 10.1884 0.556592 10.1985 0.501733C10.2085 0.446873 10.2077 0.390561 10.1961 0.336013ZM3.59956 22.8721C2.90174 22.717 2.32224 22.4122 1.87786 21.9659C1.2548 21.3402 0.913088 20.46 0.862338 19.3533C0.842115 18.8162 0.878548 18.2784 0.971027 17.749L0.138094 17.6021C0.0351255 18.1917 -0.00534796 18.7907 0.0173519 19.3889C0.0781461 20.7173 0.50286 21.7864 1.27997 22.5666C1.84081 23.1298 2.56082 23.5117 3.42013 23.7022L3.42542 23.7033C3.87447 23.7969 4.33188 23.844 4.79049 23.844C4.98767 23.844 5.18484 23.8353 5.38199 23.8179L5.30766 22.9717C4.7365 23.0223 4.16104 22.9888 3.59956 22.8721ZM6.69097 22.7528L6.88191 23.5804C7.26 23.4925 7.65215 23.381 8.04757 23.2492L7.78124 22.4428C7.4105 22.5664 7.04373 22.6707 6.69097 22.7528ZM9.21873 21.8794L9.56383 22.6552C10.0413 22.441 10.5291 22.197 11.014 21.9301L10.6073 21.1852C10.1424 21.4409 9.67527 21.6745 9.21873 21.8794Z" fill="#75FBB9"/>
<path d="M13.5694 19.2405C13.2081 19.5166 12.8412 19.7821 12.4789 20.0298L12.9547 20.732C13.3292 20.4759 13.7083 20.2016 14.0812 19.9168C14.1257 19.8828 14.1702 19.8486 14.2146 19.8144L13.6989 19.1411C13.656 19.1743 13.6128 19.2075 13.5694 19.2405ZM15.6346 18.6404C15.8701 18.4327 16.107 18.217 16.3386 17.9995C16.4427 17.9017 16.5464 17.8029 16.6497 17.703L16.0633 17.091C15.9628 17.1881 15.862 17.2842 15.7609 17.3792C15.5356 17.5908 15.3054 17.8004 15.0765 18.0024C15.0205 18.0517 14.9646 18.1006 14.9085 18.1493L15.4617 18.7917C15.5194 18.7416 15.577 18.6912 15.6346 18.6404ZM22.6464 6.16135L23.4817 6.29409C23.5123 6.09955 23.5369 5.90554 23.5549 5.71738C23.6298 4.93324 23.5941 4.20659 23.4487 3.55741C23.2573 2.70494 22.8786 1.98987 22.3232 1.4319C21.2329 0.337053 19.5524 -0.0642844 17.4631 0.271482C16.4263 0.438144 15.3106 0.78267 14.1473 1.2955L14.4872 2.07338C15.5846 1.58959 16.6309 1.26561 17.5969 1.11037C19.4072 0.819517 20.8348 1.13835 21.7252 2.03261C22.1658 2.47515 22.4681 3.05106 22.6239 3.74414C22.7496 4.30519 22.7797 4.94178 22.7133 5.63625C22.6968 5.80722 22.6743 5.9837 22.6464 6.16135ZM10.0536 4.74411C10.4546 4.43893 10.8694 4.14107 11.2865 3.85877L10.8137 3.15432C10.3838 3.44538 9.95623 3.75243 9.54278 4.06695L10.0536 4.74411ZM7.67629 6.77666C8.05136 6.41705 8.44156 6.06371 8.83614 5.72641L8.28783 5.07951C7.88109 5.42727 7.479 5.79155 7.0923 6.1622L7.67629 6.77666ZM23.3922 6.89437C23.3771 6.83864 23.3508 6.78659 23.315 6.7414C23.2792 6.69621 23.2346 6.65883 23.1839 6.63155C23.1332 6.60426 23.0775 6.58765 23.0202 6.58272C22.9629 6.57779 22.9052 6.58465 22.8506 6.60288L20.9063 7.25264C20.8009 7.28902 20.7141 7.36571 20.6647 7.46604C20.6153 7.56637 20.6073 7.68223 20.6425 7.78843C20.6777 7.89464 20.7532 7.9826 20.8526 8.03321C20.952 8.08381 21.0672 8.09296 21.1733 8.05866L22.2876 7.68632C21.9807 8.6629 21.5839 9.60863 21.1022 10.5112C20.439 11.7578 19.6678 12.9433 18.7973 14.0538C18.1547 14.8778 17.468 15.6662 16.7402 16.4154L17.3456 17.0088C18.0946 16.2378 18.8014 15.4265 19.4627 14.5785C20.3641 13.4284 21.1627 12.2007 21.8494 10.9097C22.272 10.1132 22.6342 9.28581 22.9331 8.43462L23.1702 9.30913C23.2006 9.41677 23.272 9.50803 23.369 9.56309C23.4659 9.61815 23.5806 9.63256 23.6881 9.60319C23.7956 9.57382 23.8872 9.50304 23.943 9.40623C23.9989 9.30942 24.0144 9.1944 23.9863 9.08614L23.3922 6.89437ZM0.874638 16.7201C0.904474 16.7201 0.934224 16.7169 0.963398 16.7106L2.88714 16.2977C2.99683 16.2741 3.09271 16.2078 3.1537 16.1132C3.21468 16.0187 3.23578 15.9037 3.21233 15.7935C3.18889 15.6834 3.12283 15.5871 3.0287 15.5258C2.93456 15.4646 2.82005 15.4434 2.71036 15.4669L1.51292 15.7239C1.77516 14.9863 2.08988 14.2685 2.45465 13.5761C3.10142 12.3457 3.85427 11.1744 4.70457 10.0759C5.10242 9.55804 5.53454 9.03618 5.9879 8.52515C6.23986 8.24168 6.5037 7.95646 6.7721 7.6774C6.88898 7.55592 7.00999 7.43221 7.13194 7.30977L6.53389 6.70901C6.40849 6.83495 6.284 6.96217 6.16384 7.08715C5.88778 7.37418 5.61627 7.66768 5.35675 7.95964C4.8897 8.4858 4.445 9.02317 4.03593 9.5557C3.15574 10.6929 2.37642 11.9054 1.70688 13.1793C1.43797 13.6902 1.19494 14.2144 0.978728 14.7499L0.837263 14.0854C0.826076 14.0304 0.80416 13.9782 0.77278 13.9318C0.7414 13.8854 0.701177 13.8457 0.654435 13.815C0.607692 13.7843 0.555356 13.7632 0.500447 13.7529C0.445538 13.7426 0.389145 13.7433 0.334523 13.7551C0.279901 13.7668 0.228133 13.7893 0.182207 13.8212C0.136282 13.8531 0.0971086 13.8939 0.0669494 13.9411C0.0367901 13.9883 0.0162424 14.041 0.00649269 14.0963C-0.00325704 14.1515 -0.00201566 14.2082 0.0101451 14.2629L0.461502 16.384C0.481699 16.479 0.533729 16.5642 0.608912 16.6254C0.684096 16.6866 0.777886 16.72 0.874638 16.7201Z" fill="#75FBB9"/>
<path d="M15.5868 12.7418C15.586 12.2758 15.4894 11.8148 15.3031 11.3879C15.1168 10.961 14.8449 10.5773 14.5043 10.2608C14.1401 9.92044 13.7109 9.65803 13.2426 9.48948C12.7744 9.32094 12.2769 9.24978 11.7804 9.28034C10.8841 9.33221 10.0393 9.71779 9.41093 10.3618C8.77862 11.0095 8.41872 11.8506 8.41555 12.7297C8.411 14.0069 9.14619 15.1723 10.2563 15.7714V17.7544C10.2563 17.989 10.4644 18.158 10.698 18.158H13.3037C13.5373 18.158 13.7454 17.9892 13.7454 17.7544V15.7794C14.8556 15.168 15.5868 14.0035 15.5868 12.7418ZM9.27016 12.7326C9.27696 12.0655 9.54398 11.4278 10.0139 10.9564C10.4948 10.4633 11.1415 10.168 11.8276 10.1284C12.2087 10.1045 12.5907 10.1587 12.9503 10.2877C13.3098 10.4167 13.6395 10.6178 13.9193 10.8788C14.175 11.1165 14.3792 11.4046 14.519 11.7252C14.6587 12.0458 14.7311 12.3919 14.7316 12.7418C14.7316 13.7587 14.1131 14.6947 13.1419 15.1265C13.0681 15.1603 13.0058 15.2152 12.9627 15.2842C12.9196 15.3533 12.8977 15.4335 12.8996 15.5149V15.5564H11.1022V15.5033C11.1041 15.4209 11.0816 15.3398 11.0375 15.2702C10.9935 15.2007 10.9298 15.1458 10.8547 15.1127C10.3863 14.9171 9.98595 14.5868 9.704 14.1633C9.42205 13.7398 9.27111 13.242 9.27016 12.7326ZM11.1022 17.3085V16.4059H12.8996V17.3085H11.1022Z" fill="#75FBB9"/>
<path d="M11.5782 6.77485V8.3305C11.5782 8.44315 11.6228 8.55119 11.7021 8.63085C11.7814 8.7105 11.889 8.75525 12.0011 8.75525C12.1133 8.75525 12.2208 8.7105 12.3002 8.63085C12.3795 8.55119 12.424 8.44315 12.424 8.3305V6.77485C12.424 6.6622 12.3795 6.55416 12.3002 6.4745C12.2208 6.39485 12.1133 6.3501 12.0011 6.3501C11.889 6.3501 11.7814 6.39485 11.7021 6.4745C11.6228 6.55416 11.5782 6.6622 11.5782 6.77485ZM5.97858 12.1586C5.86642 12.1586 5.75885 12.2033 5.67953 12.283C5.60022 12.3626 5.55566 12.4707 5.55566 12.5833C5.55566 12.696 5.60022 12.804 5.67953 12.8837C5.75885 12.9633 5.86642 13.0081 5.97858 13.0081H7.59063C7.70279 13.0081 7.81036 12.9633 7.88968 12.8837C7.96899 12.804 8.01355 12.696 8.01355 12.5833C8.01355 12.4707 7.96899 12.3626 7.88968 12.283C7.81036 12.2033 7.70279 12.1586 7.59063 12.1586H5.97858ZM18.4466 12.5833C18.4466 12.4707 18.402 12.3626 18.3227 12.283C18.2434 12.2033 18.1358 12.1586 18.0237 12.1586H16.4116C16.2994 12.1586 16.1919 12.2033 16.1126 12.283C16.0332 12.3626 15.9887 12.4707 15.9887 12.5833C15.9887 12.696 16.0332 12.804 16.1126 12.8837C16.1919 12.9633 16.2994 13.0081 16.4116 13.0081H18.0237C18.1358 13.0081 18.2434 12.9633 18.3227 12.8837C18.402 12.804 18.4466 12.696 18.4466 12.5833ZM8.89305 9.99956C8.97763 9.99958 9.06027 9.97413 9.1303 9.9265C9.20033 9.87887 9.25453 9.81125 9.2859 9.73236C9.31728 9.65348 9.32438 9.56696 9.30629 9.48398C9.2882 9.401 9.24576 9.32537 9.18444 9.26687L8.0367 8.1717C7.95538 8.0941 7.8467 8.05213 7.73457 8.05501C7.62244 8.05789 7.51604 8.1054 7.43878 8.18707C7.36152 8.26874 7.31972 8.37789 7.32259 8.49051C7.32546 8.60313 7.37276 8.70999 7.45408 8.78759L8.60193 9.88276C8.68041 9.95783 8.78467 9.99966 8.89305 9.99956ZM15.9655 8.1717L14.8178 9.26687C14.7365 9.34446 14.6892 9.45132 14.6863 9.56394C14.6834 9.67656 14.7252 9.78571 14.8025 9.86738C14.8797 9.94906 14.9861 9.99656 15.0983 9.99944C15.2104 10.0023 15.3191 9.96035 15.4004 9.88276L16.5481 8.78759C16.6295 8.70999 16.6768 8.60313 16.6796 8.49051C16.6825 8.37789 16.6407 8.26874 16.5635 8.18707C16.4862 8.1054 16.3798 8.05789 16.2677 8.05501C16.1555 8.05213 16.0468 8.0941 15.9655 8.1717Z" fill="#75FBB9"/>
</svg>
